<?xml version="1.0" encoding="utf-8"?>
<!-- Generator: Adobe Illustrator 23.0.2, SVG Export Plug-In . SVG Version: 6.00 Build 0)  -->
<svg version="1.1" id="Layer_1" xmlns="http://www.w3.org/2000/svg" xmlns:xlink="http://www.w3.org/1999/xlink" x="0px" y="0px"
	 viewBox="0 0 527 322" style="enable-background:new 0 0 527 322;" xml:space="preserve">
<style type="text/css">
	.st0{fill:url(#SVGID_1_);stroke:url(#SVGID_2_);stroke-miterlimit:10;}
	.st1{fill:none;stroke:#E6E6E6;stroke-miterlimit:10;}
	.st2{fill:none;stroke:#333333;stroke-miterlimit:10;}
	.st3{fill:none;stroke:#CCCCCC;stroke-miterlimit:10;}
	.st4{fill:none;stroke:#FF0000;stroke-width:2;stroke-miterlimit:10;stroke-dasharray:8,6;}
	.st5{fill:none;stroke:#0000FF;stroke-width:2;stroke-miterlimit:10;stroke-dasharray:8,6;}
	.st6{fill:#FF0000;}
	.st7{fill:#0000FF;}
	.st8{font-family:'ArialMT';}
	.st9{font-size:12px;}
	.st10{fill:none;stroke:#000000;stroke-miterlimit:10;}
	.st11{font-family:'MyriadPro-Regular';}
	.st12{font-size:14px;}
	.st13{fill:#202124;}
	.st14{font-family:'MyriadPro-Bold';}
	.st15{fill:none;stroke:#CC4125;stroke-width:2;stroke-miterlimit:10;stroke-dasharray:8,6;}
	.st16{fill:#3500FF;stroke:#0000FF;stroke-width:2;stroke-miterlimit:10;}
	.st17{fill:none;stroke:#FF0000;stroke-width:2;stroke-miterlimit:10;}
	.st18{font-size:17px;}
	.st19{clip-path:url(#SVGID_4_);fill:none;stroke:#0000FF;stroke-width:2;stroke-miterlimit:10;}
	.st20{clip-path:url(#SVGID_6_);fill:#0000FF;}
	.st21{clip-path:url(#SVGID_8_);fill:none;stroke:#DB4437;stroke-width:2;stroke-miterlimit:10;}
	.st22{clip-path:url(#SVGID_10_);fill:#DB4437;}
</style>
<linearGradient id="SVGID_1_" gradientUnits="userSpaceOnUse" x1="47.25" y1="142.75" x2="62" y2="142.75">
	<stop  offset="0.347" style="stop-color:#CFCFCF"/>
	<stop  offset="0.391" style="stop-color:#D3D3D3"/>
	<stop  offset="0.7834" style="stop-color:#F3F3F3"/>
	<stop  offset="1" style="stop-color:#FFFFFF"/>
</linearGradient>
<linearGradient id="SVGID_2_" gradientUnits="userSpaceOnUse" x1="46.75" y1="142.75" x2="62.5" y2="142.75">
	<stop  offset="0" style="stop-color:#9E9E9E"/>
	<stop  offset="0.3304" style="stop-color:#BBBBBB"/>
	<stop  offset="1" style="stop-color:#FFFFFF"/>
</linearGradient>
<rect x="47.25" y="5" class="st0" width="14.75" height="275.5"/>
<line class="st1" x1="62" y1="5" x2="62" y2="280.5"/>
<line class="st2" x1="47.5" y1="5" x2="47.5" y2="280.5"/>
<path class="st3" d="M192.5,280.5"/>
<path class="st3" d="M192.5,5"/>
<path class="st3" d="M336.5,280.5"/>
<path class="st3" d="M336.5,5"/>
<path class="st3" d="M481.5,280.5"/>
<path class="st3" d="M481.5,5"/>
<line class="st1" x1="163.5" y1="5" x2="163.5" y2="280.5"/>
<line class="st1" x1="105.5" y1="5" x2="105.5" y2="280.5"/>
<line class="st1" x1="76.5" y1="5" x2="76.5" y2="280.5"/>
<line class="st1" x1="278.5" y1="5" x2="278.5" y2="280.5"/>
<line class="st1" x1="394.5" y1="5" x2="394.5" y2="280.5"/>
<line class="st1" x1="510.5" y1="7" x2="510.5" y2="282.5"/>
<line class="st2" x1="40.5" y1="280.5" x2="517.5" y2="280.5"/>
<line class="st3" x1="40.5" y1="203.5" x2="517.5" y2="203.5"/>
<line class="st3" x1="40.5" y1="50.5" x2="517.5" y2="50.5"/>
<line class="st1" x1="40.5" y1="242.5" x2="517.5" y2="242.5"/>
<line class="st1" x1="40.5" y1="163.5" x2="517.5" y2="163.5"/>
<line class="st1" x1="40.5" y1="88.5" x2="517.5" y2="88.5"/>
<line class="st1" x1="40.5" y1="11.5" x2="517.5" y2="11.5"/>
<g>
	<polyline class="st4" points="47.35,70.76 61.82,70.76 76.29,70.76 90.76,70.76 105.23,70.76 119.7,70.76 134.16,70.76 
		148.63,70.76 163.1,70.76 177.57,70.76 192.04,70.76 206.51,70.76 220.98,70.76 235.45,70.76 249.92,70.76 264.39,70.76 
		278.86,70.76 293.32,70.76 307.79,70.76 322.26,70.76 336.73,70.76 351.2,70.76 365.67,70.76 380.14,70.76 394.61,70.76 
		409.08,70.76 423.55,70.76 438.01,70.76 452.48,70.76 466.95,70.76 481.42,70.76 495.89,70.76 510.36,70.76 	"/>
</g>
<g>
	<polyline class="st5" points="47.35,35.28 61.82,35.28 76.29,35.28 90.76,35.28 105.23,35.28 119.7,35.28 134.16,35.28 
		148.63,35.28 163.1,35.28 177.57,35.28 192.04,35.28 206.51,35.28 220.98,35.28 235.45,35.28 249.92,35.28 264.39,35.28 
		278.86,35.28 293.32,35.28 307.79,35.28 322.26,35.28 336.73,35.28 351.2,35.28 365.67,35.28 380.14,35.28 394.61,35.28 
		409.08,35.28 423.55,35.28 438.01,35.28 452.48,35.28 466.95,35.28 481.42,35.28 495.89,35.28 510.36,35.28 	"/>
</g>
<g>
	<circle class="st6" cx="47.35" cy="70.76" r="4.5"/>
	<circle class="st6" cx="61.82" cy="70.76" r="4.5"/>
	<circle class="st6" cx="76.29" cy="70.76" r="4.5"/>
	<circle class="st6" cx="105.23" cy="70.76" r="4.5"/>
	<circle class="st6" cx="163.1" cy="70.76" r="4.5"/>
	<circle class="st6" cx="277.86" cy="70.76" r="4.5"/>
	<circle class="st6" cx="394.61" cy="70.76" r="4.5"/>
	<circle class="st6" cx="510.36" cy="70.76" r="4.5"/>
</g>
<g>
	<circle class="st7" cx="48.35" cy="35.28" r="4.5"/>
	<circle class="st7" cx="62.82" cy="35.28" r="4.5"/>
	<circle class="st7" cx="77.29" cy="35.28" r="4.5"/>
	<circle class="st7" cx="106.23" cy="35.28" r="4.5"/>
	<circle class="st7" cx="164.1" cy="35.28" r="4.5"/>
	<circle class="st7" cx="278.86" cy="35.28" r="4.5"/>
	<circle class="st7" cx="395.61" cy="35.28" r="4.5"/>
	<circle class="st7" cx="511.36" cy="35.28" r="4.5"/>
</g>
<text transform="matrix(1 0 0 1 31.5498 284.4498)" class="st8 st9">0</text>
<text transform="matrix(1 0 0 1 24.5498 207.7249)" class="st8 st9">20</text>
<text transform="matrix(1 0 0 1 24.5498 131)" class="st8 st9">40</text>
<text transform="matrix(1 0 0 1 24.5498 54.2746)" class="st8 st9">60</text>
<text transform="matrix(1 0 0 1 24.5498 14.5502)" class="st8 st9">70</text>
<text transform="matrix(1 0 0 1 43.8501 297.4498)" class="st8 st9">0</text>
<text transform="matrix(1 0 0 1 273.0405 297.4498)" class="st8 st9">80</text>
<text transform="matrix(1 0 0 1 386.2314 297.4498)" class="st8 st9">120</text>
<text transform="matrix(1 0 0 1 500.9219 297.4498)" class="st8 st9">160</text>
<line class="st1" x1="40.5" y1="127" x2="517.5" y2="127"/>
<text transform="matrix(1 0 0 1 70 297.4495)" class="st8 st9">10</text>
<text transform="matrix(1 0 0 1 58 298.0005)" class="st8 st9">5</text>
<text transform="matrix(1 0 0 1 99 297.4497)" class="st8 st9">20</text>
<text transform="matrix(1 0 0 1 157 297.4491)" class="st8 st9">40</text>
<text transform="matrix(1 0 0 1 24.5498 88.5)" class="st8 st9">50</text>
<text transform="matrix(1 0 0 1 24.5498 169)" class="st8 st9">30</text>
<text transform="matrix(1 0 0 1 24.5498 248)" class="st8 st9">10</text>
<g>
	<g>
		<line class="st10" x1="70.05" y1="105.71" x2="87.43" y2="105.71"/>
		<g>
			<polygon points="71.51,110.7 62.87,105.71 71.51,100.72 			"/>
		</g>
	</g>
</g>
<text transform="matrix(1 0 0 1 94.7031 102.4072)"><tspan x="0" y="0" class="st11 st12">initial online </tspan><tspan x="0" y="16.8" class="st11 st12">training phase</tspan></text>
<text transform="matrix(1 0 0 1 76.3195 25.8032)" class="st13 st8 st9">63.5%</text>
<text transform="matrix(1 0 0 1 167.6028 25.8037)" class="st13 st8 st9">63.5%</text>
<text transform="matrix(1 0 0 1 283.3551 25.8042)" class="st13 st8 st9">63.5%</text>
<text transform="matrix(1 0 0 1 399.1075 25.8047)" class="st13 st8 st9">63.5%</text>
<text transform="matrix(1 0 0 1 476.3195 25.8052)" class="st13 st8 st9">63.5%</text>
<text transform="matrix(1 0 0 1 76.5001 63.8032)" class="st13 st8 st9">54.5%</text>
<text transform="matrix(1 0 0 1 167.6029 63.8037)" class="st13 st8 st9">54.5%</text>
<text transform="matrix(1 0 0 1 283.3551 63.8037)" class="st13 st8 st9">54.5%</text>
<text transform="matrix(1 0 0 1 399.1076 63.8037)" class="st13 st8 st9">54.5%</text>
<text transform="matrix(1 0 0 1 476.3196 63.8037)" class="st13 st8 st9">54.5%</text>
<text transform="matrix(1 0 0 1 476.4999 219.9999)" class="st13 st8 st9">15.0%</text>
<text transform="matrix(1 0 0 1 92.4279 182.4996)" class="st13 st8 st9">24.4%</text>
<text transform="matrix(1 0 0 1 148.4064 191.9996)" class="st13 st8 st9">22.0%</text>
<text transform="matrix(1 0 0 1 399.1073 219.0002)" class="st13 st8 st9">15.4%</text>
<text transform="matrix(1 0 0 1 264.4162 197.7505)" class="st13 st8 st9">19.9%</text>
<text transform="matrix(1 0 0 1 88.4277 219.0002)" class="st13 st8 st9">13.6%</text>
<text transform="matrix(1 0 0 1 270.0407 241.5)" class="st13 st8 st9">8.3%</text>
<text transform="matrix(1 0 0 1 401.2314 261.4996)" class="st13 st8 st9">3.4%</text>
<text transform="matrix(1 0 0 1 148.4064 230.0008)" class="st13 st8 st9">11.5%</text>
<text transform="matrix(1 0 0 1 482.8195 261.5)" class="st13 st8 st9">3.3%</text>
<text transform="matrix(1 0 0 1 342.4159 139.7499)" class="st14 st12">OCN (0-1000), 7 categories</text>
<text transform="matrix(1 0 0 1 342.416 160.4995)" class="st14 st12">OCN (0-1000), 5 categories</text>
<line class="st15" x1="301.51" y1="116.71" x2="336.13" y2="116.71"/>
<line class="st5" x1="301.55" y1="95.64" x2="336.16" y2="95.64"/>
<text transform="matrix(1 0 0 1 342.4159 119.9863)" class="st14 st12">ResNet50, 5 categories</text>
<line class="st16" x1="301.55" y1="137.75" x2="336.16" y2="137.75"/>
<line class="st17" x1="301.51" y1="157.6" x2="336.13" y2="157.6"/>
<text transform="matrix(1 0 0 1 342.4159 99.6435)" class="st14 st12">ResNet50, 7 categories</text>
<text transform="matrix(1 0 0 1 238.1423 313.2095)" class="st11 st18">Video Time (s)</text>
<text transform="matrix(0 -1 1 0 19.1425 251.0005)" class="st11 st18">Object Identification Error (%)</text>
<g>
	<defs>
		<rect id="SVGID_3_" x="40.55" y="-23.45" width="476.61" height="306.9"/>
	</defs>
	<clipPath id="SVGID_4_">
		<use xlink:href="#SVGID_3_"  style="overflow:visible;"/>
	</clipPath>
	<polyline class="st19" points="61.82,177.11 76.29,184.86 90.76,187.28 105.23,189.69 119.7,192.02 134.16,194.35 148.63,196.68 
		163.1,199.01 177.57,200.02 192.04,201.03 206.51,202.04 220.98,203.04 235.45,204.05 249.92,205.06 264.39,206.06 278.86,207.07 
		293.32,209.24 307.79,211.41 322.26,213.57 336.73,215.74 351.2,217.91 365.67,220.08 380.14,222.24 394.61,224.41 409.08,224.58 
		423.55,224.75 438.01,224.91 452.48,225.08 466.95,225.25 481.42,225.42 495.89,225.58 510.36,225.75 	"/>
</g>
<g>
	<defs>
		<rect id="SVGID_5_" x="40.55" y="-23.45" width="476.61" height="306.9"/>
	</defs>
	<clipPath id="SVGID_6_">
		<use xlink:href="#SVGID_5_"  style="overflow:visible;"/>
	</clipPath>
	<circle class="st20" cx="61.82" cy="177.11" r="4.5"/>
	<circle class="st20" cx="76.29" cy="184.86" r="4.5"/>
	<circle class="st20" cx="105.23" cy="189.69" r="4.5"/>
	<circle class="st20" cx="163.1" cy="199.01" r="4.5"/>
	<circle class="st20" cx="278.86" cy="207.07" r="4.5"/>
	<circle class="st20" cx="394.61" cy="224.41" r="4.5"/>
	<circle class="st20" cx="510.36" cy="225.75" r="4.5"/>
</g>
<g>
	<defs>
		<rect id="SVGID_7_" x="40.82" y="-26.45" width="476.61" height="306.9"/>
	</defs>
	<clipPath id="SVGID_8_">
		<use xlink:href="#SVGID_7_"  style="overflow:visible;"/>
	</clipPath>
	<polyline class="st21" points="62.09,214.12 76.56,223.48 91.03,225.94 105.5,228.39 119.97,230.36 134.44,232.32 148.91,234.29 
		163.38,236.26 177.85,237.8 192.31,239.34 206.78,240.89 221.25,242.43 235.72,243.98 250.19,245.52 264.66,247.07 279.13,248.61 
		293.6,250.95 308.07,253.3 322.54,255.64 337,257.99 351.47,260.33 365.94,262.68 380.41,265.02 394.88,267.37 409.35,267.44 
		423.82,267.5 438.29,267.57 452.76,267.64 467.23,267.7 481.7,267.77 496.16,267.84 510.63,267.91 	"/>
</g>
<g>
	<defs>
		<rect id="SVGID_9_" x="40.82" y="-26.45" width="476.61" height="306.9"/>
	</defs>
	<clipPath id="SVGID_10_">
		<use xlink:href="#SVGID_9_"  style="overflow:visible;"/>
	</clipPath>
	<circle class="st22" cx="62.09" cy="214.12" r="4.5"/>
	<circle class="st22" cx="76.56" cy="223.48" r="4.5"/>
	<circle class="st22" cx="105.5" cy="228.39" r="4.5"/>
	<circle class="st22" cx="163.38" cy="236.26" r="4.5"/>
	<circle class="st22" cx="279.13" cy="248.61" r="4.5"/>
	<circle class="st22" cx="394.88" cy="267.37" r="4.5"/>
	<circle class="st22" cx="510.63" cy="267.91" r="4.5"/>
</g>
<text transform="matrix(1 0 0 1 49.2501 207.7249)" class="st13 st8 st9">17.3%</text>
<text transform="matrix(1 0 0 1 49.6252 167.4996)" class="st13 st8 st9">27.7%</text>
</svg>
