<?xml version="1.0" encoding="utf-8"?>
<!-- Generator: Adobe Illustrator 23.0.2, SVG Export Plug-In . SVG Version: 6.00 Build 0)  -->
<svg version="1.1" id="Layer_1" xmlns="http://www.w3.org/2000/svg" xmlns:xlink="http://www.w3.org/1999/xlink" x="0px" y="0px"
	 viewBox="0 0 786 282" style="enable-background:new 0 0 786 282;" xml:space="preserve">
<style type="text/css">
	.st0{clip-path:url(#SVGID_2_);}
	.st1{opacity:0;clip-path:url(#SVGID_4_);fill-rule:evenodd;clip-rule:evenodd;}
	
		.st2{clip-path:url(#SVGID_4_);fill:none;stroke:#434343;stroke-width:1.5;stroke-linejoin:round;stroke-miterlimit:8;stroke-dasharray:1.5,4.5;}
	.st3{clip-path:url(#SVGID_4_);fill:none;stroke:#3C78D8;stroke-width:3;stroke-linejoin:round;stroke-miterlimit:8;}
	.st4{clip-path:url(#SVGID_4_);fill-rule:evenodd;clip-rule:evenodd;fill:#3C78D8;}
	.st5{clip-path:url(#SVGID_4_);fill:none;stroke:#3C78D8;stroke-width:3;stroke-miterlimit:10;}
	.st6{clip-path:url(#SVGID_4_);fill:none;stroke:#000000;stroke-width:0.75;stroke-linejoin:round;stroke-miterlimit:8;}
	.st7{clip-path:url(#SVGID_4_);fill:none;stroke:#CC4125;stroke-width:3;stroke-linejoin:round;stroke-miterlimit:8;}
	.st8{clip-path:url(#SVGID_4_);fill-rule:evenodd;clip-rule:evenodd;fill:#CC4125;}
	.st9{clip-path:url(#SVGID_4_);fill:none;stroke:#CC4125;stroke-width:3;stroke-miterlimit:10;}
	.st10{clip-path:url(#SVGID_4_);}
	.st11{fill:#CC4125;}
	.st12{font-family:'GoogleSans-Regular';}
	.st13{font-size:12px;}
	.st14{fill:#3C78D8;}
	.st15{clip-path:url(#SVGID_4_);fill-rule:evenodd;clip-rule:evenodd;fill:#D9EAD3;}
	.st16{clip-path:url(#SVGID_4_);fill:none;stroke:#6AA84F;stroke-width:1.5;stroke-linejoin:round;stroke-miterlimit:8;}
	.st17{font-family:'GoogleSans-Bold';}
	.st18{clip-path:url(#SVGID_4_);fill-rule:evenodd;clip-rule:evenodd;fill:#FFFFFF;}
	.st19{clip-path:url(#SVGID_4_);fill:none;stroke:#434343;stroke-width:1.5;stroke-linejoin:round;stroke-miterlimit:8;}
	.st20{font-family:'ArialMT';}
	
		.st21{clip-path:url(#SVGID_4_);fill:none;stroke:#3C78D8;stroke-width:1.5;stroke-linejoin:round;stroke-miterlimit:8;stroke-dasharray:6,4.5;}
	.st22{clip-path:url(#SVGID_4_);fill:none;stroke:#3C78D8;stroke-width:1.5;stroke-miterlimit:10;}
	
		.st23{clip-path:url(#SVGID_4_);fill:none;stroke:#CC4125;stroke-width:1.5;stroke-linejoin:round;stroke-miterlimit:8;stroke-dasharray:6,4.5;}
	.st24{clip-path:url(#SVGID_4_);fill:none;stroke:#CC4125;stroke-width:1.5;stroke-miterlimit:10;}
	
		.st25{clip-path:url(#SVGID_4_);fill:none;stroke:#434343;stroke-width:2.25;stroke-linejoin:round;stroke-miterlimit:8;stroke-dasharray:9,6.75;}
	.st26{clip-path:url(#SVGID_4_);fill-rule:evenodd;clip-rule:evenodd;fill:#434343;}
	.st27{clip-path:url(#SVGID_4_);fill:none;stroke:#434343;stroke-width:2.25;stroke-miterlimit:10;}
	.st28{font-size:8px;}
</style>
<g>
	<defs>
		<rect id="SVGID_1_" width="786" height="282"/>
	</defs>
	<clipPath id="SVGID_2_">
		<use xlink:href="#SVGID_1_"  style="overflow:visible;"/>
	</clipPath>
	<g class="st0">
		<defs>
			<rect id="SVGID_3_" width="786.16" height="282.79"/>
		</defs>
		<clipPath id="SVGID_4_">
			<use xlink:href="#SVGID_3_"  style="overflow:visible;"/>
		</clipPath>
		<rect class="st1" width="786.16" height="282.79"/>
		<line class="st1" x1="243.47" y1="41.73" x2="243.47" y2="279.77"/>
		<line class="st2" x1="243.47" y1="41.73" x2="243.47" y2="279.77"/>
		<line class="st1" x1="588.48" y1="97.63" x2="588.48" y2="132.88"/>
		<line class="st3" x1="588.48" y1="115.63" x2="588.48" y2="132.88"/>
		<polygon class="st4" points="593.44,115.63 588.48,102.02 583.53,115.63 		"/>
		<polygon class="st5" points="593.44,115.63 588.48,102.02 583.53,115.63 		"/>
		<line class="st1" x1="487.38" y1="97.63" x2="487.38" y2="132.88"/>
		<line class="st3" x1="487.38" y1="115.63" x2="487.38" y2="132.88"/>
		<polygon class="st4" points="492.34,115.63 487.38,102.02 482.43,115.63 		"/>
		<polygon class="st5" points="492.34,115.63 487.38,102.02 482.43,115.63 		"/>
		<line class="st1" x1="421.98" y1="2.71" x2="421.98" y2="281.27"/>
		<line class="st2" x1="421.98" y1="2.71" x2="421.98" y2="281.27"/>
		<path class="st1" d="M663.23,63.51L663.23,63.51c0-11.03,8.94-19.97,19.97-19.97h79.87c5.3,0,10.38,2.1,14.12,5.85
			c3.74,3.74,5.85,8.82,5.85,14.12v178.68c0,11.03-8.94,19.97-19.97,19.97H683.2c-11.03,0-19.97-8.94-19.97-19.97V63.51z"/>
		<path class="st6" d="M663.23,63.51L663.23,63.51c0-11.03,8.94-19.97,19.97-19.97h79.87c5.3,0,10.38,2.1,14.12,5.85
			c3.74,3.74,5.85,8.82,5.85,14.12v178.68c0,11.03-8.94,19.97-19.97,19.97H683.2c-11.03,0-19.97-8.94-19.97-19.97V63.51z"/>
		<line class="st1" x1="71.33" y1="89.71" x2="71.33" y2="261.39"/>
		<line class="st3" x1="71.33" y1="107.71" x2="71.33" y2="261.39"/>
		<polygon class="st4" points="76.29,107.71 71.33,94.09 66.38,107.71 		"/>
		<polygon class="st5" points="76.29,107.71 71.33,94.09 66.38,107.71 		"/>
		<line class="st1" x1="140.68" y1="97.85" x2="140.68" y2="261.27"/>
		<line class="st3" x1="140.68" y1="115.85" x2="140.68" y2="261.27"/>
		<polygon class="st4" points="145.63,115.85 140.68,102.24 135.72,115.85 		"/>
		<polygon class="st5" points="145.63,115.85 140.68,102.24 135.72,115.85 		"/>
		<line class="st1" x1="208.65" y1="90.01" x2="208.65" y2="261.93"/>
		<line class="st7" x1="208.65" y1="108.01" x2="208.65" y2="261.93"/>
		<polygon class="st8" points="213.6,108.01 208.65,94.4 203.69,108.01 		"/>
		<polygon class="st9" points="213.6,108.01 208.65,94.4 203.69,108.01 		"/>
		<rect x="147.09" y="97.59" class="st1" width="88.94" height="31.02"/>
		<g class="st10">
			<text transform="matrix(1 0 0 1 153.8442 115.8628)" class="st11 st12 st13">negative</text>
		</g>
		<rect x="21.84" y="97.85" class="st1" width="125.6" height="31.02"/>
		<g class="st10">
			<text transform="matrix(1 0 0 1 28.5918 116.1191)" class="st14 st12 st13">anchor      positive</text>
		</g>
		<rect x="48.95" y="123.86" class="st15" width="180.47" height="21.66"/>
		<rect x="48.95" y="123.86" class="st16" width="180.47" height="21.66"/>
		<rect x="55.74" y="119.7" class="st1" width="170.76" height="21.66"/>
		<g class="st10">
			<text transform="matrix(1 0 0 1 92.8599 137.9688)" class="st17 st13">OCN embedding</text>
		</g>
		<polygon class="st18" points="49.52,43.46 229.99,43.46 229.99,86.69 139.76,97.49 49.52,86.69 		"/>
		<polygon class="st19" points="49.52,43.46 229.99,43.46 229.99,86.69 139.76,97.49 49.52,86.69 		"/>
		<rect x="103.47" y="37.07" class="st1" width="115.51" height="21.66"/>
		<g class="st10">
			<text transform="matrix(1 0 0 1 110.2227 55.3423)" class="st20 st13">metric loss</text>
		</g>
		<rect x="69.94" y="54.64" class="st1" width="88.94" height="31.02"/>
		<g class="st10">
			<text transform="matrix(1 0 0 1 76.6885 72.9131)" class="st14 st12 st13">attraction</text>
		</g>
		<rect x="145.55" y="55.07" class="st1" width="88.94" height="31.02"/>
		<g class="st10">
			<text transform="matrix(1 0 0 1 152.3037 73.3394)" class="st11 st12 st13">repulsion</text>
		</g>
		<path class="st1" d="M72.27,87.23c18.46-14.82,55.8-10.81,68.58,9.77"/>
		<path class="st21" d="M72.27,87.23c9.23-7.41,23.18-10.11,36.42-8.39c6.62,0.86,13.06,2.83,18.65,5.87
			c2.79,1.52,5.37,3.31,7.65,5.35l0.06,0.05"/>
		<polygon class="st4" points="133.16,91.71 139.44,95.32 136.95,88.52 		"/>
		<polygon class="st22" points="133.16,91.71 139.44,95.32 136.95,88.52 		"/>
		<path class="st1" d="M141.36,96.48c7.11-22.26,51.1-24.8,67.01-8.22"/>
		<path class="st23" d="M141.36,96.48c3.55-11.13,16.33-17.33,30.21-18.68c6.94-0.67,14.15-0.13,20.62,1.61
			c1.62,0.44,3.19,0.95,4.7,1.53c0.75,0.29,1.49,0.61,2.22,0.94c0.36,0.17,0.72,0.34,1.07,0.51c0.18,0.09,0.35,0.18,0.52,0.27
			l0.44,0.23"/>
		<polygon class="st8" points="199.67,84.89 206.61,86.95 202.62,80.91 		"/>
		<polygon class="st24" points="199.67,84.89 206.61,86.95 202.62,80.91 		"/>
		<rect x="211.6" y="-6.47" class="st1" width="115.51" height="21.66"/>
		<g class="st10">
			<text transform="matrix(1 0 0 1 218.3491 11.8022)" class="st17 st13">training</text>
		</g>
		<rect x="218.35" y="12.58" class="st10" width="45.36" height="1.08"/>
		<rect x="457.9" y="-6.47" class="st1" width="180.47" height="21.66"/>
		<g class="st10">
			<text transform="matrix(1 0 0 1 464.6465 11.8018)" class="st17 st13">evaluation (supervised)</text>
		</g>
		<rect x="464.65" y="12.58" class="st10" width="135.94" height="1.08"/>
		<rect x="248.51" y="258.51" class="st1" width="163.51" height="21.66"/>
		<g class="st10">
			<text transform="matrix(1 0 0 1 255.2607 276.7793)" class="st17 st13">[Supervised] baseline</text>
		</g>
		<rect x="53.99" y="258.51" class="st1" width="184.02" height="21.66"/>
		<g class="st10">
			<text transform="matrix(1 0 0 1 60.7437 276.7793)" class="st17 st13">[Unsupervised] OCN (ours)</text>
		</g>
		<line class="st1" x1="303.28" y1="97.85" x2="303.28" y2="262.17"/>
		<line class="st3" x1="303.28" y1="115.85" x2="303.28" y2="262.17"/>
		<polygon class="st4" points="308.24,115.85 303.28,102.24 298.33,115.85 		"/>
		<polygon class="st5" points="308.24,115.85 303.28,102.24 298.33,115.85 		"/>
		<rect x="665.62" y="51.76" class="st1" width="125.6" height="21.66"/>
		<g class="st10">
			<text transform="matrix(1 0 0 1 672.373 70.0308)" class="st17 st13">labels for</text>
		</g>
		<g class="st10">
			<text transform="matrix(1 0 0 1 672.373 84.2808)" class="st17 st13">10 attributes:</text>
		</g>
		<g class="st10">
			<text transform="matrix(1 0 0 1 672.373 112.7808)" class="st12 st13">class (12)</text>
		</g>
		<g class="st10">
			<text transform="matrix(1 0 0 1 672.373 127.0308)" class="st12 st13">color (8)</text>
		</g>
		<g class="st10">
			<text transform="matrix(1 0 0 1 672.373 141.2812)" class="st12 st13">has_buttons (2)</text>
		</g>
		<g class="st10">
			<text transform="matrix(1 0 0 1 672.373 155.5312)" class="st12 st13">has_flat_surface (2)</text>
		</g>
		<g class="st10">
			<text transform="matrix(1 0 0 1 672.373 169.7812)" class="st12 st13">has_legs (2)</text>
		</g>
		<g class="st10">
			<text transform="matrix(1 0 0 1 672.373 184.0312)" class="st12 st13">has_lid (2)</text>
		</g>
		<g class="st10">
			<text transform="matrix(1 0 0 1 672.373 198.2812)" class="st12 st13">has_wheels (2)</text>
		</g>
		<g class="st10">
			<text transform="matrix(1 0 0 1 672.373 212.5312)" class="st12 st13">is_container (2)</text>
		</g>
		<g class="st10">
			<text transform="matrix(1 0 0 1 672.373 226.7812)" class="st12 st13">is_device (2)</text>
		</g>
		<g class="st10">
			<text transform="matrix(1 0 0 1 672.373 241.0312)" class="st12 st13">is_sitable (2)</text>
		</g>
		<polygon class="st18" points="257.21,43.46 348.37,43.46 348.37,86.68 302.79,97.49 257.21,86.68 		"/>
		<polygon class="st19" points="257.21,43.46 348.37,43.46 348.37,86.68 302.79,97.49 257.21,86.68 		"/>
		<rect x="255.62" y="45.22" class="st1" width="115.51" height="21.66"/>
		<g class="st10">
			<text transform="matrix(1 0 0 1 262.3721 63.4922)" class="st20 st13">Cross-entropy / </text>
		</g>
		<g class="st10">
			<text transform="matrix(1 0 0 1 262.3721 77.7422)" class="st20 st13">Softmax loss</text>
		</g>
		<polyline class="st1" points="723.14,43.54 723.14,24.71 302.78,24.71 302.78,43.47 		"/>
		<polyline class="st25" points="723.14,43.54 723.14,24.71 302.78,24.71 302.78,29.97 		"/>
		<polygon class="st26" points="299.07,29.97 302.78,40.18 306.5,29.97 		"/>
		<polygon class="st27" points="299.07,29.97 302.78,40.18 306.5,29.97 		"/>
		<polygon class="st18" points="29.43,184.72 48.12,150.58 361.99,150.58 380.69,184.72 		"/>
		<polygon class="st19" points="29.43,184.72 48.12,150.58 361.99,150.58 380.69,184.72 		"/>
		<g class="st10">
			<text transform="matrix(1 0 0 1 137.7173 165.5254)" class="st12 st13">additional deep network:</text>
		</g>
		<g class="st10">
			<text transform="matrix(1 0 0 1 59.0088 179.7754)" class="st12 st13">3 ResNet units of 3 convolutions each + 1 pooling layer</text>
		</g>
		<rect x="455.02" y="123.86" class="st15" width="180.47" height="21.66"/>
		<rect x="455.02" y="123.86" class="st16" width="180.47" height="21.66"/>
		<rect x="461.81" y="119.7" class="st1" width="170.76" height="21.66"/>
		<g class="st10">
			<text transform="matrix(1 0 0 1 498.9346 137.9688)" class="st17 st13">OCN embedding</text>
		</g>
		<polygon class="st18" points="441.81,43.46 532.96,43.46 532.96,86.68 487.38,97.49 441.81,86.68 		"/>
		<polygon class="st19" points="441.81,43.46 532.96,43.46 532.96,86.68 487.38,97.49 441.81,86.68 		"/>
		<rect x="429.79" y="44.16" class="st1" width="115.51" height="21.66"/>
		<g class="st10">
			<text transform="matrix(1 0 0 1 445.5488 62.4268)" class="st12 st13">Linear classifier </text>
		</g>
		<g class="st10">
			<text transform="matrix(1 0 0 1 459.8945 76.6768)" class="st12 st13">(MSE loss)</text>
		</g>
		<polyline class="st1" points="723.14,43.54 723.14,24.79 487.55,24.79 487.55,44.15 		"/>
		<polyline class="st25" points="723.14,43.54 723.14,24.79 487.55,24.79 487.55,30.65 		"/>
		<polygon class="st26" points="483.84,30.65 487.55,40.86 491.27,30.65 		"/>
		<polygon class="st27" points="483.84,30.65 487.55,40.86 491.27,30.65 		"/>
		<polygon class="st18" points="541.64,43.46 632.79,43.46 632.79,86.68 587.21,97.49 541.64,86.68 		"/>
		<polygon class="st19" points="541.64,43.46 632.79,43.46 632.79,86.68 587.21,97.49 541.64,86.68 		"/>
		<rect x="530.13" y="39.7" class="st1" width="115.51" height="21.66"/>
		<g class="st10">
			<text transform="matrix(1 0 0 1 563.7656 57.9668)" class="st12 st13">Nearest-</text>
		</g>
		<g class="st10">
			<text transform="matrix(1 0 0 1 562.499 72.2168)" class="st12 st13">Neighbor</text>
		</g>
		<g class="st10">
			<text transform="matrix(1 0 0 1 563.8672 86.4668)" class="st12 st13">classifier</text>
		</g>
		<polyline class="st1" points="723.14,43.54 723.14,24.71 587.22,24.71 587.22,43.47 		"/>
		<polyline class="st25" points="723.14,43.54 723.14,24.71 587.22,24.71 587.22,29.97 		"/>
		<polygon class="st26" points="583.5,29.97 587.22,40.18 590.93,29.97 		"/>
		<polygon class="st27" points="583.5,29.97 587.22,40.18 590.93,29.97 		"/>
		<polygon class="st18" points="7,224.55 27.34,190.41 383.34,190.41 403.69,224.55 		"/>
		<polygon class="st19" points="7,224.55 27.34,190.41 383.34,190.41 403.69,224.55 		"/>
		<g class="st10">
			<text transform="matrix(1 0 0 1 83.2539 212.459)" class="st12 st13">ResNet50 (pre-trained or not with ImageNet)</text>
		</g>
		<rect x="333.68" y="182.66" class="st1" width="91.16" height="21.66"/>
		<g class="st10">
			<text transform="matrix(1 0 0 1 340.4287 197.085)" class="st12 st28">10x10x2048</text>
		</g>
		<rect x="199.6" y="116.63" class="st1" width="91.16" height="21.66"/>
		<g class="st10">
			<text transform="matrix(1 0 0 1 206.3516 131.0566)" class="st12 st28">1x1x16</text>
		</g>
		<rect x="321.53" y="142.83" class="st1" width="91.16" height="21.66"/>
		<g class="st10">
			<text transform="matrix(1 0 0 1 328.2832 157.2559)" class="st12 st28">1x1x2048</text>
		</g>
		<rect x="7" y="230.56" class="st18" width="396.69" height="31.02"/>
		<rect x="7" y="230.56" class="st19" width="396.69" height="31.02"/>
		<g class="st10">
			<text transform="matrix(1 0 0 1 142.3066 250.4639)" class="st12 st13">cropped object images     </text>
		</g>
		<rect x="356.56" y="223.09" class="st1" width="91.16" height="21.66"/>
		<g class="st10">
			<text transform="matrix(1 0 0 1 363.3076 237.5166)" class="st12 st28">299x299x3</text>
		</g>
	</g>
</g>
</svg>
