<?xml version="1.0" encoding="utf-8"?>
<!-- Generator: Adobe Illustrator 23.0.2, SVG Export Plug-In . SVG Version: 6.00 Build 0)  -->
<svg version="1.1" id="Layer_1" xmlns="http://www.w3.org/2000/svg" xmlns:xlink="http://www.w3.org/1999/xlink" x="0px" y="0px"
	 viewBox="0 0 576.73 229.3" style="enable-background:new 0 0 576.73 229.3;" xml:space="preserve">
<style type="text/css">
	.st0{fill:url(#SVGID_1_);stroke:url(#SVGID_2_);stroke-miterlimit:10;}
	.st1{fill:none;stroke:#CCCCCC;stroke-miterlimit:10;}
	.st2{fill:none;stroke:#000000;stroke-miterlimit:10;}
	.st3{fill:none;stroke:#000000;stroke-miterlimit:10;stroke-dasharray:5.0344,5.0344;}
	.st4{fill:none;stroke:#333333;stroke-miterlimit:10;}
	.st5{fill:#EA4335;}
	.st6{fill:#202124;}
	.st7{font-family:'ArialMT';}
	.st8{font-size:12px;}
	.st9{fill:#4285F4;}
	.st10{fill:none;stroke:#EA4335;stroke-width:2;stroke-miterlimit:10;}
	.st11{font-family:'MyriadPro-Regular';}
	.st12{font-size:14px;}
	.st13{font-size:17px;}
	.st14{fill:none;stroke:#4285F4;stroke-width:2;stroke-miterlimit:10;}
</style>
<linearGradient id="SVGID_1_" gradientUnits="userSpaceOnUse" x1="40.5691" y1="101.9959" x2="62.0691" y2="101.9959">
	<stop  offset="0" style="stop-color:#CFCFCF"/>
	<stop  offset="0.5625" style="stop-color:#ECECEC"/>
	<stop  offset="1" style="stop-color:#FFFFFF"/>
</linearGradient>
<linearGradient id="SVGID_2_" gradientUnits="userSpaceOnUse" x1="40.0691" y1="101.9959" x2="62.5691" y2="101.9959">
	<stop  offset="0" style="stop-color:#9E9E9E"/>
	<stop  offset="0.3304" style="stop-color:#BBBBBB"/>
	<stop  offset="1" style="stop-color:#FFFFFF"/>
</linearGradient>
<rect x="40.57" y="10.22" class="st0" width="21.5" height="183.55"/>
<line class="st1" x1="76.99" y1="197.73" x2="76.99" y2="6.46"/>
<line class="st1" x1="108.29" y1="197.73" x2="108.29" y2="6.46"/>
<line class="st1" x1="172.88" y1="198.35" x2="172.88" y2="7.08"/>
<line class="st1" x1="302.07" y1="197.73" x2="302.07" y2="6.46"/>
<line class="st1" x1="561.44" y1="196.85" x2="561.44" y2="5.58"/>
<line class="st1" x1="36.57" y1="163.22" x2="569.57" y2="163.22"/>
<line class="st1" x1="36.57" y1="133.22" x2="569.57" y2="133.22"/>
<line class="st1" x1="36.57" y1="102.22" x2="569.57" y2="102.22"/>
<g>
	<g>
		<line class="st2" x1="59.07" y1="197.28" x2="59.07" y2="194.78"/>
		<line class="st3" x1="59.07" y1="189.75" x2="59.07" y2="11.03"/>
		<line class="st2" x1="59.07" y1="8.51" x2="59.07" y2="6.01"/>
	</g>
</g>
<line class="st4" x1="35.57" y1="194.22" x2="568.57" y2="194.22"/>
<line class="st1" x1="36.57" y1="71.22" x2="569.57" y2="71.22"/>
<line class="st1" x1="36.57" y1="41.22" x2="569.57" y2="41.22"/>
<line class="st1" x1="36.57" y1="10.22" x2="569.57" y2="10.22"/>
<line class="st2" x1="40.32" y1="197.28" x2="40.32" y2="6.01"/>
<g>
	<circle class="st5" cx="42.69" cy="33.87" r="4.5"/>
	<circle class="st5" cx="58.84" cy="33.87" r="4.5"/>
	<circle class="st5" cx="74.99" cy="33.87" r="4.5"/>
	<circle class="st5" cx="107.29" cy="33.87" r="4.5"/>
	<circle class="st5" cx="171.88" cy="33.87" r="4.5"/>
	<circle class="st5" cx="301.07" cy="33.87" r="4.5"/>
	<circle class="st5" cx="561.44" cy="33.87" r="4.5"/>
</g>
<text transform="matrix(1 0 0 1 28.6189 198.173)" class="st6 st7 st8">0</text>
<text transform="matrix(1 0 0 1 21.6189 167.5585)" class="st6 st7 st8">10</text>
<text transform="matrix(1 0 0 1 21.6189 136.9437)" class="st6 st7 st8">20</text>
<text transform="matrix(1 0 0 1 21.6189 106.3288)" class="st6 st7 st8">30</text>
<text transform="matrix(1 0 0 1 21.6189 75.7139)" class="st6 st7 st8">40</text>
<text transform="matrix(1 0 0 1 21.6189 45.099)" class="st6 st7 st8">50</text>
<text transform="matrix(1 0 0 1 21.6189 14.4846)" class="st6 st7 st8">60</text>
<text transform="matrix(1 0 0 1 38.0691 210.4986)" class="st6 st7 st8">0</text>
<text transform="matrix(1 0 0 1 56.0691 210.4987)" class="st6 st7 st8">5</text>
<text transform="matrix(1 0 0 1 71.0691 210.4987)" class="st6 st7 st8">10</text>
<text transform="matrix(1 0 0 1 168.1871 210.499)" class="st6 st7 st8">40</text>
<text transform="matrix(1 0 0 1 103.0691 210.4992)" class="st6 st7 st8">20</text>
<text transform="matrix(1 0 0 1 295.373 210.4985)" class="st6 st7 st8">80</text>
<text transform="matrix(1 0 0 1 552.7269 210.4981)" class="st6 st7 st8">160</text>
<circle class="st9" cx="470.04" cy="113.22" r="5.02"/>
<circle class="st5" cx="470.04" cy="91.93" r="5.02"/>
<g>
	<g>
		<line class="st2" x1="75.48" y1="86.72" x2="92.86" y2="86.72"/>
		<g>
			<polygon points="76.94,91.71 68.3,86.72 76.94,81.74 			"/>
		</g>
	</g>
</g>
<g>
	<polyline class="st10" points="40.57,33.81 56.94,33.81 73.31,33.81 89.68,33.81 106.05,33.81 122.42,33.81 138.8,33.81 
		155.17,33.81 171.54,33.81 187.91,33.81 204.28,33.81 220.65,33.81 237.02,33.81 253.39,33.81 269.76,33.81 286.14,33.81 
		302.51,33.81 318.88,33.81 335.25,33.81 351.62,33.81 367.99,33.81 384.36,33.81 400.73,33.81 417.1,33.81 433.48,33.81 
		449.85,33.81 466.22,33.81 482.59,33.81 498.96,33.81 515.33,33.81 531.7,33.81 548.07,33.81 564.44,33.81 	"/>
</g>
<text transform="matrix(1 0 0 1 95.1331 91.4198)" class="st11 st12">initial online training phase</text>
<text transform="matrix(1 0 0 1 481.8531 94.9491)" class="st11 st12">ResNet50</text>
<text transform="matrix(1 0 0 1 481.8528 118.2381)" class="st11 st12">OCN</text>
<text transform="matrix(1 0 0 1 78.0693 24.8032)" class="st6 st7 st8">52.4%</text>
<text transform="matrix(1 0 0 1 177.3261 24.8032)" class="st6 st7 st8">52.4%</text>
<text transform="matrix(1 0 0 1 307.5693 24.8032)" class="st6 st7 st8">52.4%</text>
<text transform="matrix(1 0 0 1 526.7964 24.8032)" class="st6 st7 st8">52.4%</text>
<text transform="matrix(1 0 0 1 61.5918 118.2369)" class="st6 st7 st8">21.4%</text>
<text transform="matrix(1 0 0 1 177.2939 152.0167)" class="st6 st7 st8">12.3%</text>
<text transform="matrix(1 0 0 1 308.062 174.9776)" class="st6 st7 st8">4.8%</text>
<text transform="matrix(1 0 0 1 436.063 177.9781)" class="st6 st7 st8">2.5%</text>
<text transform="matrix(1 0 0 1 534.5831 178.7233)" class="st6 st7 st8">2.2%</text>
<text transform="matrix(1 0 0 1 85.0666 130.9434)" class="st6 st7 st8">20.7%</text>
<text transform="matrix(1 0 0 1 258.7179 226.2095)" class="st11 st13">Video Time (s)</text>
<text transform="matrix(0 -1 1 0 14.718 211.4346)" class="st11 st13">Object Identification Error (%)</text>
<line class="st1" x1="431.04" y1="198.35" x2="431.04" y2="7.08"/>
<text transform="matrix(1 0 0 1 417.457 211.4345)" class="st6 st7 st8">120</text>
<g>
	<polyline class="st14" points="59.58,128.72 75.75,130.86 91.92,139.71 108.1,148.56 124.27,150.55 140.44,152.54 156.61,154.53 
		172.79,156.52 188.96,159.39 205.13,162.26 221.31,165.13 237.48,168 253.65,170.87 269.83,173.74 286,176.61 302.17,179.48 
		318.34,180.47 334.52,181.47 350.69,182.46 366.86,183.46 383.04,184.45 399.21,185.45 415.38,186.44 431.56,186.52 447.73,186.63 
		463.9,186.75 480.07,186.86 496.25,186.98 512.42,187.09 528.59,187.21 544.77,187.32 560.94,187.43 	"/>
</g>
<g>
	<ellipse class="st9" cx="59.58" cy="128.72" rx="4.51" ry="4.5"/>
	<ellipse class="st9" cx="75.75" cy="130.86" rx="4.51" ry="4.5"/>
	<ellipse class="st9" cx="108.1" cy="148.56" rx="4.51" ry="4.5"/>
	<ellipse class="st9" cx="172.79" cy="156.52" rx="4.51" ry="4.5"/>
	<ellipse class="st9" cx="302.17" cy="179.48" rx="4.51" ry="4.5"/>
	<ellipse class="st9" cx="431.56" cy="186.52" rx="4.51" ry="4.5"/>
	<ellipse class="st9" cx="561.94" cy="187.43" rx="4.51" ry="4.5"/>
</g>
<text transform="matrix(1 0 0 1 114.7243 146.0571)" class="st6 st7 st8">14.9%</text>
<text transform="matrix(1 0 0 1 436.0631 24.8032)" class="st6 st7 st8">52.4%</text>
</svg>
